testWalking_myEMG.mot
nRows=20
nColumns=9

name testWalking_myEMG.mot
datacolumns 9
datarows 20
range 0.7583333333 0.7759259259
endheader
time	VASMED.Raw	VASMED.Processed	GAS.Raw	GAS.Processed	SOL.Raw	SOL.Processed	HAMLAT.Raw	HAMLAT.Processed
        0.7583333333	     4687.6796875000	 20543719.5245214850	   -25733.4101562500	287528654.0453414900	     6250.2397460938	 40996835.5960868300	   -68703.8125000000	4749639345.4677896000	
        0.7592592593	     2929.8000488281	 37425051.2673773170	     8789.4003906250	1254652468.4307747000	     2636.8198242188	 48154713.5347552300	     2002.0299072266	7457082601.8916836000	
        0.7601851852	     9814.8300781250	 77446687.2880746130	    45753.7070312500	2190397838.9509010000	    -6592.0502929688	 86330844.8395507340	  -108597.9140625000	12105260783.5958100000	
        0.7611111111	     6445.5600585938	 35136058.0484769340	   -11035.5800781250	1160665376.0818367000	   -16260.3896484375	168155223.5456728900	  -155718.8750000000	21140906169.8528750000	
        0.7620370370	     7812.7998046875	 25789330.9018578530	   -22705.9492187500	1299073296.9354553000	   -14600.1689453125	 17842210.9858713150	   -28614.3789062500	6967459733.7455902000	
        0.7629629630	     5468.9599609375	  2823093.5615503788	    70998.8203125000	6384614996.7844696000	   -12012.1796875000	 24520858.8965206150	   -50001.9179687500	1987404637.7789993000	
        0.7638888889	     3466.9299316406	 31242385.6480607390	    59181.9570312500	2739792138.6935730000	    -8203.4394531250	 39141793.4992408750	   -17920.6113281250	3075265866.6119881000	
        0.7648148148	     7910.4599609375	 40229071.7002693410	    10742.5996093750	2074725008.7731209000	    -2343.8398437500	129671507.6447048200	    55080.2382812500	2707434019.6407433000	
        0.7657407407	     6445.5600585938	 35322039.1316792960	   -33106.7382812500	1681466322.1293259000	    15137.2998046875	265303948.7931985900	   -18213.5878906250	2911030460.8264503000	
        0.7666666667	     9717.1699218750	 75539189.1161996130	   -54494.2773437500	1634313048.2868195000	    15430.2792968750	 17825525.4048309330	   -46827.9687500000	2021210354.3485832000	
        0.7675925926	     2929.8000488281	 34594810.3938745860	   -40333.5781250000	230549449.8811187700	    14551.3398437500	 48240564.1318206790	    -9424.1894531250	603302532.5124549900	
        0.7685185185	     4443.5302734375	  5438747.6525278091	   -34083.3398437500	456597103.7920074500	    10596.1093750000	 57541987.7905769350	    10986.7500000000	272569116.4692249300	
        0.7694444444	     4883.0000000000	 23240443.7884674070	   -17481.1406250000	362176114.8673167200	    11670.3701171875	 50307809.4989633560	    16113.8994140625	 52575327.3782815930	
        0.7703703704	    10596.1093750000	 73889195.1691894530	     1660.2198486328	 53118971.1400578170	     8105.7797851563	100465379.0999844100	    18848.3789062500	108979932.0384664500	
        0.7712962963	     7861.6298828125	 13218939.6337270740	     2880.9699707031	  4489767.2063964009	    -2978.6298828125	124051559.2257790600	    15283.7900390625	155720721.7594900100	
        0.7722222222	     7080.3500976563	   226517.9400126934	     2295.0097656250	 15553238.7486104970	   -14209.5302734375	183875385.1744031900	    20655.0898437500	146021157.2901001000	
        0.7731481481	     6347.8999023438	 30925270.1740605830	     7226.8398437500	 45839490.3619775770	    -6054.9199218750	 80374688.2311279770	    18360.0781250000	 76428642.5795135500	
        0.7740740741	    10058.9804687500	 84444819.7660377030	     2783.3100585938	 33188027.9552457330	     3076.2897949219	 23655321.4659467340	    20020.3007812500	148889597.9241027800	
        0.7750000000	     2636.8198242188	 16623820.4247663020	     5664.2797851563	 27734976.6960484390	     2343.8398437500	  4141648.1332204714	    13721.2294921875	 18977213.3161497120	
        0.7759259259	     2343.8398437500	  5751097.0267222114	     1562.5599365234	   782072.9744035155	      439.4700012207	 18390635.4727589040	    10351.9599609375	 47608681.9392471310	
